# xmcd
#
# Track frame offsets: 
#        150
#        19092
#        34286
#        50230
#        68798
#        85789
#        105695
#        124289
#        144259
#        160160
#
# Disc length: 2404 seconds
#
# Revision: 0
# Processed by: cddbd v1.5.2PL0 Copyright (c) Steve Scherf et al.
# Submitted via: ExactAudioCopy v1.0b1
#
DISCID=8709620a
DTITLE=Chris Rea - The Return of the Fabulous Hofner Blue Notes [CD3)
DYEAR=2008
DGENRE=Blues
TTITLE0=Twister Inside
TTITLE1=When The Truth Comes Out
TTITLE2=Because It's You
TTITLE3=Looking Glass Blues
TTITLE4=Blues For Janice
TTITLE5=Meet Me On the Mountain
TTITLE6=Skylark Blues
TTITLE7=Which Part Of The Painting Made You Cry?
TTITLE8=The Days I Spent With You (Song For Bella)
TTITLE9=Yes I Do
EXTD=
EXTT0=
EXTT1=
EXTT2=
EXTT3=
EXTT4=
EXTT5=
EXTT6=
EXTT7=
EXTT8=
EXTT9=
PLAYORDER=
